<svg xmlns="http://www.w3.org/2000/svg" viewBox="0 0 188.56 72.52"><defs><style>.cls-1{fill:#fff;}</style></defs><title>Recurso 4</title><g id="Capa_2" data-name="Capa 2"><g id="Capa_1-2" data-name="Capa 1"><path class="cls-1" d="M164.62,39.45c.4-.59.58-.68,1.14-1.5.75-1.12,1.35-1.87,2-1.84s1.8.7,3,3.19c.82,1.72.33.61.87,1.73.36.73.59,1.2.69,1a4.57,4.57,0,0,0-.44-1.63c-1-2.87-1.75-5.21-1.81-5.3h0c-2.27-5.76-2.34-9.57-.23-12.15,2-2.19,5.94-2.66,10.32.63a12.12,12.12,0,0,1,1.32,1.19s.64.61,1.17,1.14a6.56,6.56,0,0,1,.46.47c.05,0,0-.15-.25-.53-.81-1.06-1.77-2-2-2.29-2.15-2.64-1.21-2.15.66-2.55a40.69,40.69,0,0,0,5.74-1.26c.21-.06,1.17-.37,1.06-.47s-.41,0-.79.09c-1.67.21-4.64.75-6.21.88-5.26.35-8.49-.83-10.42-3.29l0,0h0c-1.91-2.53-1.14-6.78,3.48-10.31.29-.25,3.26-2.27,3.71-2.51-.18-.18-2,.84-3.44,1.74-1.29.78-2.33,1.47-2.75,1.17-.21-.17.05-1,.49-2.35.22-.74.61-1.92.89-2.7.13-.37.13-.53.09-.52s-.06,0-.27.46c-.63,1.33-1.37,3-1.54,3.51-2.1,5.13-4.38,7.92-7.34,8.71-2.75.61-5.58-1.09-7.42-5.56-1.74-4.31-.56-7.46-.63-8.57a14.69,14.69,0,0,0,0,9.21c.51,1.72-.38,1.13-.59,1-1-.64-4-2.4-5.55-1.31a8.25,8.25,0,0,1,4.74,1.79c3.48,2.48,5.42,5.76,5.41,8.62-.12,3.18-2.29,6.18-8.44,5.65l-2.4,0a27.82,27.82,0,0,1-3.61-.33c-.91-.13-2.65-.67-2.75-.56s1.05.48,1.72.64a18,18,0,0,0,3.56.58c2.32.18,3.44.28,4.22.37,1,.12.66.37.71.57.12.45-.82,1.4-1.72,2.34-.71.68-1.56,1.35-1.29,1.46s.91-.63,1.4-1c.71-.59,1.42-1.24,1.5-1.3,3.91-2.87,7.59-3.84,10.5-2.64l.05,0h0c2.73,1.25,4.54,4.58,2.45,10.11-.12.34-.95,2.54-1.68,4.06a4.32,4.32,0,0,0-.45,1.08c.21.2.43-.38.74-.83m-2-20.57a2.93,2.93,0,0,1,3.9-1.6,3.09,3.09,0,0,1,1.67,3.95,2.93,2.93,0,0,1-3.88,1.55,3,3,0,0,1-1.69-3.9"/><path class="cls-1" d="M110.5,23.91c.78.12,4.76,0,5.28,0,1.41.14,1.31.66,1.44,1.12s-.58,1.56-1.44,2.92c-.58.92-1.22,1.92-1.63,2.58-.26.4-.42.67-.32.69s.36-.31.68-.68c1.22-1.42,3.32-4.12,3.31-4.14h0c2.64-3.09,5.61-4.42,8.06-3.69,2.16.76,3.9,3.29,2.71,8.23a14.62,14.62,0,0,1-.55,1.66l-.61,1.59c-.23.57-.28.68-.28.68s.14-.05.38-.51c.68-1.3,1.14-2.53,1.29-2.84,1.37-2.89,1.24-1.82,2.13-.64A12.89,12.89,0,0,0,133.57,34c.1.1.58.46.61.34s-.14-.2-.28-.39a29.41,29.41,0,0,1-2.48-3.56c-1.86-3.81-2.06-6.69-1-8.73l0,0h0c1.13-2,4-3,8.23-.52.21.05,3.84,2.69,4.56,3.13a42.52,42.52,0,0,0-3.9-3.13c-1.08-.79-1.94-1.36-1.9-1.77,0-.21.65-.26,1.76-.39l2.13-.26c.28,0,.38-.1.35-.13s0,0-.42,0c-1.12,0-2.54,0-2.92,0-4.2.1-6.76-.63-8.29-2.44-1.33-1.71-1.08-4.25,1.25-7s4.06-2.49,4.55-2.82c-1.53,0-2.91.53-5.06,2.54-1,.93-.8.05-.75-.17.11-.9,1.1-4.33.41-5.86a24.44,24.44,0,0,1-.88,5.32c-.92,3.67-2.29,5.89-4.34,6.83-2.22,1-5.16-.16-6.65-4.19,0-.07-.83-2.27-1.28-3.83a6,6,0,0,0-.56-1.5c-.1,0,.07.6.15,1,.36,2,1.45,5.1,1.46,5.37,0,.68-.07.65-.2.75-.28.23-1.25,0-2.21-.3-.72-.23-1.49-.57-1.5-.39s.75.4,1.21.58c.65.26,1.35.5,1.42.53,3.26,1.49,5.16,3.78,5.3,6.1v0h0c0,2.26-1.83,3.76-6,4a51.46,51.46,0,0,1-5.88.52c-.39,0-.93,0-.92,0s.48.17.94.25m15.82-7.34a2.35,2.35,0,0,1,2.41,2.21,2.19,2.19,0,0,1-2.16,2.33,2.32,2.32,0,0,1-2.39-2.18,2.24,2.24,0,0,1,2.14-2.36"/><path class="cls-1" d="M3.64,43.39a3.75,3.75,0,0,1,1.93.46,1.37,1.37,0,0,1,.79,1.22V61.55a1.47,1.47,0,0,1-.79,1.17,3.28,3.28,0,0,1-1.93.55,3.14,3.14,0,0,1-1.92-.55A1.49,1.49,0,0,1,1,61.55V45.07a1.39,1.39,0,0,1,.75-1.22,3.59,3.59,0,0,1,1.92-.46"/><path class="cls-1" d="M32.61,56.49a2.42,2.42,0,0,0,.5,1.72,2.63,2.63,0,0,0,1.84.5h1.63a2.07,2.07,0,0,1,1.74.71A2.42,2.42,0,0,1,38.89,61a2.5,2.5,0,0,1-.57,1.59,2.09,2.09,0,0,1-1.74.71H35a8.94,8.94,0,0,1-5.77-1.61q-2-1.62-2-5.17V38.68a1.38,1.38,0,0,1,.86-1.21A3.76,3.76,0,0,1,29.89,37a3.79,3.79,0,0,1,1.88.46,1.37,1.37,0,0,1,.84,1.21v4.71h4.94a1.12,1.12,0,0,1,1,.63,2.71,2.71,0,0,1,0,2.7,1.13,1.13,0,0,1-1,.6H32.61Z"/><path class="cls-1" d="M47.46,43.14a9.13,9.13,0,0,1,3.29.59,9,9,0,0,1,2.76,1.61A7.34,7.34,0,0,1,56.08,51a5.34,5.34,0,0,1-.33,2.09,2.47,2.47,0,0,1-.9,1.11,3.06,3.06,0,0,1-1.26.44,12.85,12.85,0,0,1-1.4.08H43.7v.63A3.56,3.56,0,0,0,45,58.29a5.47,5.47,0,0,0,3.55,1.09,5.61,5.61,0,0,0,1.8-.26,8.89,8.89,0,0,0,1.34-.54L52.8,58a2,2,0,0,1,.94-.25,1.46,1.46,0,0,1,.84.25,2.73,2.73,0,0,1,.65.62,3,3,0,0,1,.41.8,2.2,2.2,0,0,1,.15.71,1.79,1.79,0,0,1-.52,1.15,5.24,5.24,0,0,1-1.49,1.13,9.46,9.46,0,0,1-2.32.86,12.9,12.9,0,0,1-3,.33,13.23,13.23,0,0,1-4.08-.6,9.45,9.45,0,0,1-3.21-1.74,8,8,0,0,1-2.09-2.72,8.12,8.12,0,0,1-.75-3.51V51.51a7.54,7.54,0,0,1,.71-3.2,8.44,8.44,0,0,1,2-2.68,9.27,9.27,0,0,1,2.9-1.82,9.56,9.56,0,0,1,3.6-.67m2.6,9.16a1.59,1.59,0,0,0,.94-.21,1.16,1.16,0,0,0,.27-.92,3,3,0,0,0-1.09-2.39,4.09,4.09,0,0,0-5.12,0A2.89,2.89,0,0,0,44,51.13V52.3Z"/><path class="cls-1" d="M67.84,47.87a3.78,3.78,0,0,0-1.78.44,4.8,4.8,0,0,0-1.52,1.23,6.3,6.3,0,0,0-1.09,2A7.45,7.45,0,0,0,63,54.06v7.49a1.47,1.47,0,0,1-.82,1.17,3.35,3.35,0,0,1-1.94.55,3.09,3.09,0,0,1-1.91-.55,1.51,1.51,0,0,1-.73-1.17V45.07a1.4,1.4,0,0,1,.73-1.22,3.62,3.62,0,0,1,1.91-.46,3.12,3.12,0,0,1,1.71.46,1.39,1.39,0,0,1,.72,1.22v1.71a5.88,5.88,0,0,1,.81-1.32,7.75,7.75,0,0,1,1.19-1.17,6,6,0,0,1,1.47-.84,4.5,4.5,0,0,1,1.67-.31h1.3a1.8,1.8,0,0,1,1.36.69,2.44,2.44,0,0,1,.61,1.65,2.53,2.53,0,0,1-.61,1.68,1.79,1.79,0,0,1-1.36.71Z"/><path class="cls-1" d="M78.43,43.14a11.07,11.07,0,0,1,4.14.69,8.09,8.09,0,0,1,2.81,1.82,6.73,6.73,0,0,1,1.56,2.6,9.42,9.42,0,0,1,.49,3V61.55a1.47,1.47,0,0,1-.76,1.22,3.35,3.35,0,0,1-1.88.5,2.91,2.91,0,0,1-1.74-.5,1.48,1.48,0,0,1-.69-1.22V60.34a12.92,12.92,0,0,1-2.66,2.3,7.19,7.19,0,0,1-5.81.67,4.5,4.5,0,0,1-1.72-1A4.9,4.9,0,0,1,71,60.55a6.41,6.41,0,0,1-.44-2.47,5.78,5.78,0,0,1,.71-3,5.1,5.1,0,0,1,2-1.89,9.87,9.87,0,0,1,3.08-1,25.42,25.42,0,0,1,4-.29H82v-.55A5.43,5.43,0,0,0,81.84,50a3.27,3.27,0,0,0-.63-1.23,3.52,3.52,0,0,0-1.13-.9,3.74,3.74,0,0,0-1.74-.36,7.51,7.51,0,0,0-2,.21,9.49,9.49,0,0,0-1.26.44,8.63,8.63,0,0,0-.83.44,1.34,1.34,0,0,1-.72.21A1.48,1.48,0,0,1,72.19,48a3.88,3.88,0,0,1-.46-1.8A1.61,1.61,0,0,1,72.36,45,5.33,5.33,0,0,1,74,44a11.36,11.36,0,0,1,2.16-.63,12.2,12.2,0,0,1,2.3-.23M82,54.73H81.4c-.7,0-1.37,0-2,.08a7.12,7.12,0,0,0-1.74.36,2.89,2.89,0,0,0-1.21.8,2,2,0,0,0-.46,1.4,2.13,2.13,0,0,0,.63,1.71,2.31,2.31,0,0,0,1.59.55,2.94,2.94,0,0,0,1.32-.34,4.51,4.51,0,0,0,1.25-.9,4.74,4.74,0,0,0,.92-1.29A3.37,3.37,0,0,0,82,55.61Z"/><path class="cls-1" d="M98.18,63.64a11.65,11.65,0,0,1-4.1-.64,7.73,7.73,0,0,1-2.83-1.8,7.3,7.3,0,0,1-1.63-2.72,10.74,10.74,0,0,1-.52-3.41V51.72a10.57,10.57,0,0,1,.52-3.37,7.22,7.22,0,0,1,1.63-2.72,7.86,7.86,0,0,1,2.81-1.82,11,11,0,0,1,4.08-.67,12.74,12.74,0,0,1,2.7.27,8.81,8.81,0,0,1,2.11.73,4.55,4.55,0,0,1,1.38,1,1.83,1.83,0,0,1,.5,1.21,3,3,0,0,1-.14.84,3.18,3.18,0,0,1-.44.86,3.27,3.27,0,0,1-.67.67,1.48,1.48,0,0,1-.88.27,1.44,1.44,0,0,1-.69-.19c-.24-.12-.51-.26-.82-.4a8.93,8.93,0,0,0-1.09-.39,5.22,5.22,0,0,0-1.54-.19,4.12,4.12,0,0,0-3.1,1,4,4,0,0,0-1,2.85v3.35a4,4,0,0,0,1,2.84,4.2,4.2,0,0,0,3.14,1,5.7,5.7,0,0,0,1.55-.19,5.88,5.88,0,0,0,1.09-.44c.3-.17.57-.32.81-.44a1.5,1.5,0,0,1,.73-.19,1.94,1.94,0,0,1,1,.25,2.62,2.62,0,0,1,.73.63,2.81,2.81,0,0,1,.44.84,2.62,2.62,0,0,1,.14.83,1.9,1.9,0,0,1-.52,1.24,5.36,5.36,0,0,1-1.44,1.11,8.71,8.71,0,0,1-2.2.79,11.93,11.93,0,0,1-2.74.29"/><path class="cls-1" d="M108.85,43.39a3.21,3.21,0,0,1,1.8.46,1.4,1.4,0,0,1,.71,1.22v1.25a7,7,0,0,1,2.18-2.2,6.1,6.1,0,0,1,3.47-1,6.59,6.59,0,0,1,2.93.67,7.36,7.36,0,0,1,2.38,1.84,9.08,9.08,0,0,1,1.59,2.7,8.89,8.89,0,0,1,.59,3.28v3.44a8.65,8.65,0,0,1-.61,3.22A9.7,9.7,0,0,1,122.28,61a8,8,0,0,1-2.32,1.9,5.72,5.72,0,0,1-2.78.71,6,6,0,0,1-3.39-1,5.57,5.57,0,0,1-2.09-2.3V70.8a1.47,1.47,0,0,1-.82,1.19,3.51,3.51,0,0,1-1.95.53A3.19,3.19,0,0,1,107,72a1.46,1.46,0,0,1-.73-1.19V45.07a1.38,1.38,0,0,1,.73-1.22,3.32,3.32,0,0,1,1.82-.46m10.25,8.24a3.52,3.52,0,0,0-.29-1.38A4.24,4.24,0,0,0,118,49a4,4,0,0,0-1.21-.86,3.65,3.65,0,0,0-2.8-.06,3.27,3.27,0,0,0-1.15.75,4.05,4.05,0,0,0-.82,1.2,3.71,3.71,0,0,0-.31,1.56v4.19a2,2,0,0,0,.27.86,4.15,4.15,0,0,0,.77,1,5.05,5.05,0,0,0,1.17.86,3.08,3.08,0,0,0,1.47.36,3.19,3.19,0,0,0,1.42-.34A3.76,3.76,0,0,0,118,57.7a4.48,4.48,0,0,0,.82-1.23,3.35,3.35,0,0,0,.31-1.4Z"/><path class="cls-1" d="M134.71,43.14a9.17,9.17,0,0,1,3.29.59,9,9,0,0,1,2.76,1.61,7.41,7.41,0,0,1,1.88,2.47,7.32,7.32,0,0,1,.69,3.2A5.34,5.34,0,0,1,143,53.1a2.54,2.54,0,0,1-.9,1.11,3.06,3.06,0,0,1-1.26.44,13,13,0,0,1-1.4.08H131v.63a3.58,3.58,0,0,0,1.33,2.93,5.52,5.52,0,0,0,3.56,1.09,5.61,5.61,0,0,0,1.8-.26,8.89,8.89,0,0,0,1.34-.54l1.07-.54a2,2,0,0,1,.94-.25,1.48,1.48,0,0,1,.84.25,2.51,2.51,0,0,1,.64.62,3.41,3.41,0,0,1,.42.8,2.2,2.2,0,0,1,.15.71,1.85,1.85,0,0,1-.52,1.15A5.24,5.24,0,0,1,141,62.45a9.62,9.62,0,0,1-2.32.86,12.93,12.93,0,0,1-3,.33,13.23,13.23,0,0,1-4.08-.6,9.4,9.4,0,0,1-3.2-1.74,8,8,0,0,1-2.09-2.72,8.12,8.12,0,0,1-.75-3.51V51.51a7.4,7.4,0,0,1,.71-3.2,8.56,8.56,0,0,1,1.94-2.68,9.43,9.43,0,0,1,2.91-1.82,9.56,9.56,0,0,1,3.6-.67m2.59,9.16a1.63,1.63,0,0,0,.95-.21,1.16,1.16,0,0,0,.27-.92,3,3,0,0,0-1.09-2.39,4.11,4.11,0,0,0-5.13,0,2.89,2.89,0,0,0-1.11,2.39V52.3Z"/><path class="cls-1" d="M159.73,34.29a3.63,3.63,0,0,1,1.93.46,1.38,1.38,0,0,1,.75,1.21V61.55a1.49,1.49,0,0,1-.75,1.17,3.17,3.17,0,0,1-1.93.55,2.68,2.68,0,0,1-1.71-.55,1.48,1.48,0,0,1-.71-1.17V60.34a5.83,5.83,0,0,1-2.22,2.3,6.59,6.59,0,0,1-3.6,1,5.69,5.69,0,0,1-2.78-.71,8,8,0,0,1-2.33-1.9,10.2,10.2,0,0,1-1.61-2.74,8.84,8.84,0,0,1-.6-3.22V51.63a9.1,9.1,0,0,1,2.17-6,7.43,7.43,0,0,1,2.37-1.84,6.41,6.41,0,0,1,2.91-.67,5.53,5.53,0,0,1,3.32,1,7.25,7.25,0,0,1,2.07,2.2V36a1.38,1.38,0,0,1,.8-1.21,3.74,3.74,0,0,1,1.92-.46M149.57,55.07a3.48,3.48,0,0,0,.29,1.4,4.18,4.18,0,0,0,.79,1.23,4.05,4.05,0,0,0,1.15.88,3.09,3.09,0,0,0,1.41.34,3.14,3.14,0,0,0,1.48-.36,4.89,4.89,0,0,0,1.21-.86,4.18,4.18,0,0,0,.82-1,1.84,1.84,0,0,0,.29-.86V51.63a3.57,3.57,0,0,0-.33-1.56,4,4,0,0,0-.88-1.2,3.83,3.83,0,0,0-1.21-.75,3.78,3.78,0,0,0-1.34-.25,3.27,3.27,0,0,0-1.42.31,3.86,3.86,0,0,0-1.18.86,4.35,4.35,0,0,0-.79,1.21,3.35,3.35,0,0,0-.29,1.38Z"/><path class="cls-1" d="M167.64,43.39a3.75,3.75,0,0,1,1.93.46,1.37,1.37,0,0,1,.79,1.22V61.55a1.47,1.47,0,0,1-.79,1.17,3.28,3.28,0,0,1-1.93.55,3.14,3.14,0,0,1-1.92-.55,1.49,1.49,0,0,1-.75-1.17V45.07a1.39,1.39,0,0,1,.75-1.22,3.59,3.59,0,0,1,1.92-.46"/><path class="cls-1" d="M179.57,43.14a11.07,11.07,0,0,1,4.14.69,8,8,0,0,1,2.8,1.82,6.63,6.63,0,0,1,1.57,2.6,9.69,9.69,0,0,1,.48,3V61.55a1.46,1.46,0,0,1-.75,1.22,3.35,3.35,0,0,1-1.88.5,2.91,2.91,0,0,1-1.74-.5,1.48,1.48,0,0,1-.69-1.22V60.34a12.92,12.92,0,0,1-2.66,2.3,7.19,7.19,0,0,1-5.81.67,4.5,4.5,0,0,1-1.72-1,4.9,4.9,0,0,1-1.17-1.73,6.41,6.41,0,0,1-.44-2.47,5.78,5.78,0,0,1,.71-3,5.1,5.1,0,0,1,2-1.89,9.87,9.87,0,0,1,3.08-1,25.42,25.42,0,0,1,4-.29h1.72v-.55A5.43,5.43,0,0,0,183,50a3.42,3.42,0,0,0-.63-1.23,3.52,3.52,0,0,0-1.13-.9,3.74,3.74,0,0,0-1.74-.36,7.51,7.51,0,0,0-2,.21,9.49,9.49,0,0,0-1.26.44c-.33.16-.61.3-.84.44a1.28,1.28,0,0,1-.71.21,1.48,1.48,0,0,1-1.38-.88,3.88,3.88,0,0,1-.46-1.8A1.61,1.61,0,0,1,173.5,45a5.33,5.33,0,0,1,1.61-1,11.15,11.15,0,0,1,2.16-.63,12.12,12.12,0,0,1,2.3-.23m3.6,11.59h-.63c-.7,0-1.37,0-2,.08a7,7,0,0,0-1.74.36,2.89,2.89,0,0,0-1.21.8,2,2,0,0,0-.46,1.4,2.13,2.13,0,0,0,.63,1.71,2.31,2.31,0,0,0,1.59.55,2.87,2.87,0,0,0,1.31-.34,4.41,4.41,0,0,0,1.26-.9,4.74,4.74,0,0,0,.92-1.29,3.37,3.37,0,0,0,.36-1.49Z"/><path class="cls-1" d="M7.07,37.41A3.6,3.6,0,0,1,3.54,41,3.69,3.69,0,0,1,0,37.41,3.62,3.62,0,0,1,3.54,34a3.58,3.58,0,0,1,3.53,3.44"/><path class="cls-1" d="M25.63,51.32a9.06,9.06,0,0,0-.57-3,9.48,9.48,0,0,0-1.57-2.7,7.39,7.39,0,0,0-2.3-1.84,6,6,0,0,0-2.74-.67H15a6,6,0,0,0-2.74.67,7.39,7.39,0,0,0-2.3,1.84,9.48,9.48,0,0,0-1.57,2.7,9.06,9.06,0,0,0-.57,3V61.55a1.38,1.38,0,0,0,.85,1.28l.18.08a3.55,3.55,0,0,0,1.64.36h.05a4,4,0,0,0,1.82-.44,1.38,1.38,0,0,0,.85-1.28V51.63a3.37,3.37,0,0,1,.3-1.38A4.52,4.52,0,0,1,14.24,49a3.62,3.62,0,0,1,1.15-.86,3.05,3.05,0,0,1,2.64,0,3.62,3.62,0,0,1,1.15.86A4.52,4.52,0,0,1,20,50.25a3.37,3.37,0,0,1,.3,1.38v9.92a1.38,1.38,0,0,0,.85,1.28,4,4,0,0,0,1.82.44h0a3.55,3.55,0,0,0,1.64-.36l.18-.08a1.38,1.38,0,0,0,.85-1.28V51.32"/><path class="cls-1" d="M100.24,34.89s-.09-.27-.18-.44c-.28-.62-.75-1.54-.84-1.69-1.29-2.28-1.54-4.28-.66-5.81h0a0,0,0,0,0,0,0c.93-1.5,3.09-2.21,5.87-.65.06,0,.59.4,1.11.76.36.25.91.72,1,.67s-.5-.53-1-.95c-.71-.59-1.45-1.1-1.51-1.38,0-.13-.11-.19.28-.46a24.43,24.43,0,0,1,4.42-1.12c.35-.07.92-.12.84-.2a6,6,0,0,0-1.54,0,20.68,20.68,0,0,0-3.31.7c-3.16.63-5.24.23-6.44-1.26-1-1.33-.85-3.55,1.09-5.61a5.58,5.58,0,0,1,2.82-1.83c-1-.39-2.87,1.22-3.38,1.79-.1.11-.61.64-.44-.34a12,12,0,0,0,.2-5,15.53,15.53,0,0,1-.61,4.8c-.81,2.69-1.7,4.38-3.24,5.06s-3.63-.18-4.88-2.77c-.12-.23-.49-1.06-.73-1.67-.08-.2-.09-.21-.11-.21s0,.1,0,.27c.1.37.26,1,.39,1.34.24.71.44,1.12.34,1.25s-.76.05-1.48-.24a9,9,0,0,0-1.93-.71c.27.16,2,1,2.12,1.12,2.54,1.4,3.93,3.31,3.91,5.12h0v0c-.1,1.7-1.44,3.22-4.74,3.14a22.82,22.82,0,0,1-4-.75,3,3,0,0,0-.5-.12,3.23,3.23,0,0,0,.76.35,13.8,13.8,0,0,0,3.79.91c1.22.16,1.7-.15,1.07,1.25-.07.15-.43.64-.71,1.15-.1.18-.08.23,0,.25s0,0,.19-.23l.46-.56a5.57,5.57,0,0,1,.54-.63c1.86-1.8,4-2.62,5.72-2.28s3.23,2.37,2.23,5.6h0a45,45,0,0,1-2,4.65c-.23.49-.48.93-.43,1s.24-.24.53-.73c.47-.77,1.09-1.89,1.57-2.84.7-1.39,1.06-2.49,1.41-2.65s.68.33,1.06.73a10.31,10.31,0,0,1,.65.84c.13.16.21.39.32.27m-2.79-8.77a1.74,1.74,0,0,1-2.37.61,1.71,1.71,0,0,1-.6-2.38,1.73,1.73,0,0,1,2.39-.62,1.76,1.76,0,0,1,.58,2.39"/></g></g></svg>